<?xml version="1.0" encoding="UTF-8" standalone="no"?>
<svg xmlns="http://www.w3.org/2000/svg" width="1400" height="420" viewBox="0 0 1400 420">
  <title>ArquivoMate2 Logo</title>
  <desc>Modern friendly folder mascot with text. Transparent background.</desc>

  <!-- Define colors -->
  <defs>
    <linearGradient id="folderFill" x1="0" y1="0" x2="0" y2="1">
      <stop offset="0%" stop-color="#FFE066"/>
      <stop offset="100%" stop-color="#FFC445"/>
    </linearGradient>
    <filter id="shadow" x="-20%" y="-20%" width="140%" height="140%">
      <feOffset in="SourceAlpha" dx="0" dy="6" result="off"/>
      <feGaussianBlur in="off" stdDeviation="6" result="blur"/>
      <feColorMatrix in="blur" type="matrix"
        values="0 0 0 0 0
                0 0 0 0 0
                0 0 0 0 0
                0 0 0 0.25 0" result="shadow"/>
      <feMerge>
        <feMergeNode in="shadow"/>
        <feMergeNode in="SourceGraphic"/>
      </feMerge>
    </filter>
  </defs>

  <!-- Mascot group -->
  <g id="mascot" transform="translate(80,50)" filter="url(#shadow)" stroke="#4B2A1A" stroke-width="10" stroke-linejoin="round" stroke-linecap="round">
    <!-- Back folder -->
    <rect x="60" y="10" rx="28" ry="28" width="240" height="190" fill="url(#folderFill)"/>
    <!-- Front folder with tab -->
    <path d="M20,60
             h120
             c20,0 28,-20 50,-20
             h90
             a28,28 0 0 1 28,28
             v152
             a28,28 0 0 1 -28,28
             h-260
             a28,28 0 0 1 -28,-28
             v-132
             a28,28 0 0 1 28,-28
             z" fill="url(#folderFill)"/>

    <!-- Face -->
    <circle cx="140" cy="140" r="10" fill="#4B2A1A" stroke="none"/>
    <circle cx="210" cy="140" r="10" fill="#4B2A1A" stroke="none"/>
    <path d="M160,165
             q25,25 50,0" fill="none" stroke="#4B2A1A" stroke-width="10" stroke-linecap="round"/>

    <!-- Little legs -->
    <path d="M120,230 v25" stroke="#4B2A1A"/>
    <path d="M220,230 v25" stroke="#4B2A1A"/>
    <!-- Shadow ellipse (soft) -->
    <ellipse cx="170" cy="270" rx="120" ry="18" fill="#000" opacity="0.08" stroke="none"/>
  </g>

  <!-- Brand text -->
  <g id="text" transform="translate(440,150)">
    <text x="0" y="0" font-family="Georgia, 'Times New Roman', serif" font-size="96" fill="#3A2316" font-weight="500">ArquivoMate2</text>
    <text x="4" y="70" font-family="Inter, Roboto, 'Segoe UI', Arial, sans-serif" font-size="40" fill="#F5A623" font-weight="600" letter-spacing="0.5">
      Where your files feel at home.
    </text>
  </g>
</svg>
